# xmcd
#
# Track frame offsets:
#	180
#	14734
#	28615
#	40201
#	53845
#	68289
#	81827
#	95763
#	108943
#	123323
#	135038
#	149036
#	163164
#	178224
#
# Disc length: 2518 seconds
#
# Revision: 0
# Processed by: cddbd v1.5.1PL0 Copyright (c) Steve Scherf et al.
# Submitted via: dBpowerAMP V4.0
#
DISCID=be09d40e
DTITLE=Julio Jaramillo - Julio Jaramillo
DYEAR=1975
DGENRE=Latin
TTITLE0=No puedo verte triste
TTITLE1=Nocturno
TTITLE2=Cinco cestavitos
TTITLE3=Azabache
TTITLE4=Madrecita
TTITLE5=Guayaquill de mi amores
TTITLE6=Flores negras
TTITLE7=Pena
TTITLE8=No me mires mal
TTITLE9=Un disco mas
TTITLE10=Felicidades
TTITLE11=Cuando tu te hayas hido
TTITLE12=adivino
TTITLE13=traicionera
EXTD=Spanish Blues
EXTT0=
EXTT1=
EXTT2=
EXTT3=
EXTT4=
EXTT5=
EXTT6=
EXTT7=
EXTT8=
EXTT9=
EXTT10=
EXTT11=
EXTT12=
EXTT13=
PLAYORDER=
